<svg width="355" height="285" viewBox="0 0 355 285" fill="none" xmlns="http://www.w3.org/2000/svg">
<g clip-path="url(#clip0_109_71)">
<path d="M205.192 257.565L262.617 143.706L205.192 29.8464C196.469 12.5509 170.382 18.7569 170.382 38.1277L170.382 249.284C170.382 268.655 196.469 274.861 205.192 257.565Z" stroke="#282725" stroke-width="12.7647"/>
<path fill-rule="evenodd" clip-rule="evenodd" d="M296.705 143.706C296.706 143.706 296.706 143.706 296.706 143.706V143.706C296.706 154.898 305.778 163.971 316.97 163.971C328.162 163.971 337.235 154.898 337.235 143.706C337.235 134.76 331.439 127.168 323.397 124.481C320.071 123.37 317.176 120.618 317.176 117.111V117.111C317.176 113.564 320.092 110.631 323.568 111.335C338.648 114.392 350 127.723 350 143.706C350 161.948 335.212 176.735 316.97 176.735C298.729 176.735 283.941 161.948 283.941 143.706V143.706C283.941 143.706 283.941 143.706 283.941 143.706L296.705 143.706Z" fill="#282725"/>
<path d="M296.753 144.618C296.753 141.093 293.896 138.235 290.371 138.235H265.753C264.746 138.235 263.93 139.052 263.93 140.059V147.353C263.93 148.36 264.746 149.176 265.753 149.176H294.93C295.937 149.176 296.753 148.36 296.753 147.353V144.618Z" fill="#282725"/>
<path d="M83.5 160.5C77.5 131.5 128.5 125.078 130.5 174.578C132.5 224.079 92.5 222.5 87 211" stroke="#282725" stroke-width="12" stroke-linecap="round"/>
<path d="M149 273C149 273 134.5 252 134 234" stroke="#282725" stroke-width="12" stroke-linecap="round"/>
<path d="M123.333 110.922C108.333 45.9216 148.832 16.0001 148.832 16.0001" stroke="#282725" stroke-width="12" stroke-linecap="round"/>
<path d="M87 211C71.0003 238 148.999 273 148.999 175.5C148.999 127.164 101.5 73.0001 64.9996 98.5001C28.4997 124 58.4996 168.5 84.4993 162" stroke="#282725" stroke-width="12" stroke-linecap="round"/>
</g>
<defs>
<clipPath id="clip0_109_71">
<rect width="355" height="285" fill="white"/>
</clipPath>
</defs>
</svg>
